<?xml version="1.0" encoding="UTF-8"?>
<svg width="210px" height="64px" viewBox="0 0 210 64" version="1.1" xmlns="http://www.w3.org/2000/svg" xmlns:xlink="http://www.w3.org/1999/xlink">
    <!-- Generator: Sketch 47.1 (45422) - http://www.bohemiancoding.com/sketch -->
    <title>64</title>
    <desc>Created with Sketch.</desc>
    <defs>
        <linearGradient x1="58.3517742%" y1="36.3955311%" x2="90.9867611%" y2="103.006893%" id="linearGradient-1">
            <stop stop-color="#3BB9EB" offset="0%"></stop>
            <stop stop-color="#585AE6" offset="100%"></stop>
        </linearGradient>
    </defs>
    <g id="Page-1" stroke="none" stroke-width="1" fill="none" fill-rule="evenodd">
        <g id="64">
            <g id="Group-6">
                <g id="Group">
                    <circle id="Oval" fill="url(#linearGradient-1)" opacity="0.600000024" cx="35.5555556" cy="35.5555556" r="28.4444444"></circle>
                    <circle id="Oval" fill="url(#linearGradient-1)" opacity="0.600000024" cx="29.4603175" cy="34.5396825" r="28.4444444"></circle>
                    <circle id="Oval" fill="url(#linearGradient-1)" opacity="0.600000024" cx="28.4444444" cy="28.4444444" r="28.4444444"></circle>
                    <circle id="Oval" fill="url(#linearGradient-1)" opacity="0.600000024" cx="34.5396825" cy="29.4603175" r="28.4444444"></circle>
                    <circle id="Oval" fill="#FFFFFF" cx="32" cy="32" r="23.8730159"></circle>
                    <g id="Group-13" transform="translate(16.677249, 16.253968)" fill="url(#linearGradient-1)">
                        <g id="Group-8" transform="translate(-0.000000, 0.000000)">
                            <path d="M34.9765021,14.5937201 L34.9765021,14.5937201 L34.9765021,14.5937201 C35.1894077,17.110051 33.3221125,19.3225344 30.8057816,19.53544 C30.4445138,19.5660067 30.0808926,19.5534975 29.7225795,19.4981759 L9.73902777,16.4128236 L9.73902777,16.4128236 C8.92030145,16.2864167 8.35906568,15.5202349 8.48547259,14.7015085 C8.58256258,14.0726653 9.06583705,13.5735028 9.69121197,13.4561295 L28.7742633,9.87453386 L28.7742633,9.87453386 C31.6251478,9.33946663 34.370004,11.2168074 34.9050712,14.0676919 C34.9377333,14.2417184 34.9615741,14.4172853 34.9765021,14.5937201 Z" id="Triangle" opacity="0.699999988" transform="translate(19.931052, 14.667589) scale(-1, 1) rotate(45.000000) translate(-19.931052, -14.667589) "></path>
                            <path d="M17.8410492,10.7387689 L18.4320385,23.7359452 L18.4320385,23.7359452 C18.5072989,25.3910892 17.2265501,26.7938592 15.571406,26.8691196 C15.3820295,26.8777307 15.192263,26.8683722 15.0046527,26.8411697 L5.74194954,25.4981273 L5.74194954,25.4981273 C5.19538029,25.4188777 4.81654287,24.9115513 4.89579249,24.364982 C4.92127969,24.1892017 4.99312547,24.0233817 5.10394223,23.8845727 L16.0605799,10.1602891 L16.0605799,10.1602891 C16.4051523,9.72867774 17.0343735,9.65811872 17.4659848,10.0026911 C17.6912487,10.1825282 17.827956,10.4508213 17.8410492,10.7387689 Z" id="Triangle" transform="translate(11.516036, 18.081110) scale(-1, 1) rotate(45.000000) translate(-11.516036, -18.081110) "></path>
                        </g>
                    </g>
                </g>
                <path d="M75.6296296,15.9444444 L75.6296296,13.9583333 L86.7783061,13.9583333 L86.7783061,15.9444444 L82.2469977,15.9444444 L82.2469977,34.3888889 L80.174753,34.3888889 L80.174753,15.9444444 L75.6296296,15.9444444 Z M104.350941,19.2777778 L104.350941,34.3888889 L102.444476,34.3888889 L102.444476,31.7916667 C101.633994,32.7824124 100.724518,33.5277753 99.7160205,34.0277778 C98.707523,34.5277803 97.6046394,34.7777778 96.4073364,34.7777778 C94.2798212,34.7777778 92.4631716,34.0023226 90.9573329,32.4513889 C89.4514942,30.9004552 88.6985862,29.0139 88.6985862,26.7916667 C88.6985862,24.6157299 89.4584016,22.7546374 90.9780553,21.2083333 C92.497709,19.6620293 94.3258711,18.8888889 96.4625963,18.8888889 C97.6967393,18.8888889 98.8134378,19.1527751 99.8127252,19.6805556 C100.812013,20.208336 101.689254,20.9999947 102.444476,22.0555556 L102.444476,19.2777778 L104.350941,19.2777778 Z M96.6145609,20.7638889 C95.5369883,20.7638889 94.5423208,21.0300899 93.6305285,21.5625 C92.7187363,22.0949101 91.9934579,22.8425878 91.4546716,23.8055556 C90.9158853,24.7685233 90.6464962,25.7870317 90.6464962,26.8611111 C90.6464962,27.9259313 90.9181878,28.9444396 91.4615791,29.9166667 C92.0049704,30.8888938 92.7348538,31.6458306 93.651251,32.1875 C94.5676482,32.7291694 95.5508034,33 96.6007459,33 C97.6598985,33 98.6637759,32.7314842 99.6124082,32.1944444 C100.561041,31.6574047 101.290924,30.9305601 101.80208,30.0138889 C102.313236,29.0972176 102.568811,28.0648206 102.568811,26.9166667 C102.568811,25.1666579 101.995495,23.7037096 100.848848,22.5277778 C99.7021998,21.351846 98.290785,20.7638889 96.6145609,20.7638889 Z M123.291258,22.4166667 L121.757797,23.375 C120.431553,21.6064726 118.621811,20.7222222 116.328515,20.7222222 C114.495721,20.7222222 112.973788,21.3148089 111.76267,22.5 C110.551552,23.6851911 109.946002,25.1249915 109.946002,26.8194444 C109.946002,27.9213018 110.224601,28.9583285 110.781807,29.9305556 C111.339014,30.9027826 112.103434,31.6574047 113.075091,32.1944444 C114.046749,32.7314842 115.135817,33 116.34233,33 C118.552736,33 120.357873,32.1157496 121.757797,30.3472222 L123.291258,31.3611111 C122.572876,32.4444499 121.60814,33.2847192 120.397023,33.8819444 C119.185905,34.4791697 117.806724,34.7777778 116.259441,34.7777778 C113.883255,34.7777778 111.91234,34.0185261 110.346636,32.5 C108.780932,30.9814739 107.998092,29.1342701 107.998092,26.9583333 C107.998092,25.4953631 108.364185,24.1365803 109.096381,22.8819444 C109.828578,21.6273085 110.834758,20.6481517 112.114951,19.9444444 C113.395144,19.2407372 114.827281,18.8888889 116.411405,18.8888889 C117.406088,18.8888889 118.366218,19.0416651 119.291825,19.3472222 C120.217433,19.6527793 121.002575,20.0509235 121.647277,20.5416667 C122.291978,21.0324099 122.839967,21.6574036 123.291258,22.4166667 Z M127.007483,13.4444444 L128.941578,13.4444444 L128.941578,21.9861111 C129.72443,20.9490689 130.585554,20.1736137 131.524977,19.6597222 C132.464399,19.1458308 133.482091,18.8888889 134.578084,18.8888889 C135.701706,18.8888889 136.698676,19.1759231 137.569024,19.75 C138.439371,20.3240769 139.08176,21.0949026 139.496211,22.0625 C139.910662,23.0300974 140.117885,24.546286 140.117885,26.6111111 L140.117885,34.3888889 L138.183789,34.3888889 L138.183789,27.1805556 C138.183789,25.4398061 138.114715,24.2777807 137.976565,23.6944444 C137.737104,22.6944394 137.301937,21.9421322 136.671051,21.4375 C136.040164,20.9328678 135.213577,20.6805556 134.191265,20.6805556 C133.021592,20.6805556 131.973968,21.0694406 131.04836,21.8472222 C130.122753,22.6250039 129.512598,23.5879572 129.217877,24.7361111 C129.033677,25.4768556 128.941578,26.8472122 128.941578,28.8472222 L128.941578,34.3888889 L127.007483,34.3888889 L127.007483,13.4444444 Z M158.850977,22.4166667 L157.317516,23.375 C155.991272,21.6064726 154.18153,20.7222222 151.888234,20.7222222 C150.05544,20.7222222 148.533507,21.3148089 147.322389,22.5 C146.111271,23.6851911 145.505721,25.1249915 145.505721,26.8194444 C145.505721,27.9213018 145.78432,28.9583285 146.341526,29.9305556 C146.898732,30.9027826 147.663153,31.6574047 148.63481,32.1944444 C149.606468,32.7314842 150.695536,33 151.902049,33 C154.112455,33 155.917592,32.1157496 157.317516,30.3472222 L158.850977,31.3611111 C158.132595,32.4444499 157.167859,33.2847192 155.956741,33.8819444 C154.745624,34.4791697 153.366443,34.7777778 151.81916,34.7777778 C149.442974,34.7777778 147.472059,34.0185261 145.906355,32.5 C144.340651,30.9814739 143.557811,29.1342701 143.557811,26.9583333 C143.557811,25.4953631 143.923904,24.1365803 144.6561,22.8819444 C145.388297,21.6273085 146.394477,20.6481517 147.67467,19.9444444 C148.954863,19.2407372 150.387,18.8888889 151.971124,18.8888889 C152.965807,18.8888889 153.925937,19.0416651 154.851544,19.3472222 C155.777152,19.6527793 156.562294,20.0509235 157.206996,20.5416667 C157.851697,21.0324099 158.399685,21.6574036 158.850977,22.4166667 Z M177.542624,19.2777778 L177.542624,34.3888889 L175.636159,34.3888889 L175.636159,31.7916667 C174.825677,32.7824124 173.916201,33.5277753 172.907703,34.0277778 C171.899206,34.5277803 170.796322,34.7777778 169.599019,34.7777778 C167.471504,34.7777778 165.654854,34.0023226 164.149016,32.4513889 C162.643177,30.9004552 161.890269,29.0139 161.890269,26.7916667 C161.890269,24.6157299 162.650084,22.7546374 164.169738,21.2083333 C165.689392,19.6620293 167.517554,18.8888889 169.654279,18.8888889 C170.888422,18.8888889 172.00512,19.1527751 173.004408,19.6805556 C174.003695,20.208336 174.880937,20.9999947 175.636159,22.0555556 L175.636159,19.2777778 L177.542624,19.2777778 Z M169.806244,20.7638889 C168.728671,20.7638889 167.734003,21.0300899 166.822211,21.5625 C165.910419,22.0949101 165.185141,22.8425878 164.646354,23.8055556 C164.107568,24.7685233 163.838179,25.7870317 163.838179,26.8611111 C163.838179,27.9259313 164.10987,28.9444396 164.653262,29.9166667 C165.196653,30.8888938 165.926536,31.6458306 166.842934,32.1875 C167.759331,32.7291694 168.742486,33 169.792429,33 C170.851581,33 171.855459,32.7314842 172.804091,32.1944444 C173.752723,31.6574047 174.482607,30.9305601 174.993763,30.0138889 C175.504919,29.0972176 175.760493,28.0648206 175.760493,26.9166667 C175.760493,25.1666579 175.187178,23.7037096 174.04053,22.5277778 C172.893882,21.351846 171.482468,20.7638889 169.806244,20.7638889 Z M181.162144,19.2777778 L183.137684,19.2777778 L183.137684,21.4861111 C183.727126,20.6157364 184.348793,19.9652799 185.002705,19.5347222 C185.656616,19.1041645 186.338148,18.8888889 187.047319,18.8888889 C187.581501,18.8888889 188.152514,19.0601835 188.760375,19.4027778 L187.751883,21.0416667 C187.346642,20.8657399 187.005876,20.7777778 186.729575,20.7777778 C186.084874,20.7777778 185.463206,21.0439788 184.864555,21.5763889 C184.265904,22.108799 183.810014,22.9351796 183.496873,24.0555556 C183.257413,24.916671 183.137684,26.6573943 183.137684,29.2777778 L183.137684,34.3888889 L181.162144,34.3888889 L181.162144,19.2777778 Z M205.407407,13.4444444 L205.407407,34.3888889 L203.500942,34.3888889 L203.500942,31.7916667 C202.69046,32.7824124 201.780984,33.5277753 200.772487,34.0277778 C199.763989,34.5277803 198.661106,34.7777778 197.463803,34.7777778 C195.336288,34.7777778 193.519638,34.0023226 192.013799,32.4513889 C190.507961,30.9004552 189.755052,29.0139 189.755052,26.7916667 C189.755052,24.6157299 190.514868,22.7546374 192.034522,21.2083333 C193.554175,19.6620293 195.382337,18.8888889 197.519063,18.8888889 C198.753206,18.8888889 199.869904,19.1527751 200.869192,19.6805556 C201.868479,20.208336 202.74572,20.9999947 203.500942,22.0555556 L203.500942,13.4444444 L205.407407,13.4444444 Z M197.671027,20.7638889 C196.593455,20.7638889 195.598787,21.0300899 194.686995,21.5625 C193.775203,22.0949101 193.049924,22.8425878 192.511138,23.8055556 C191.972352,24.7685233 191.702962,25.7870317 191.702962,26.8611111 C191.702962,27.9259313 191.974654,28.9444396 192.518045,29.9166667 C193.061437,30.8888938 193.79132,31.6458306 194.707717,32.1875 C195.624115,32.7291694 196.60727,33 197.657212,33 C198.716365,33 199.720242,32.7314842 200.668875,32.1944444 C201.617507,31.6574047 202.34739,30.9305601 202.858546,30.0138889 C203.369703,29.0972176 203.625277,28.0648206 203.625277,26.9166667 C203.625277,25.1666579 203.051962,23.7037096 201.905314,22.5277778 C200.758666,21.351846 199.347251,20.7638889 197.671027,20.7638889 Z" id="Tachcard" fill="#4A4A4A"></path>
                <path d="M79.4394074,49.3232103 L79.4394074,42.9964981 L84.9217422,42.9964981 L84.9217422,49.3232103 L83.9794659,49.3232103 L83.9794659,43.8286382 L80.3816837,43.8286382 L80.3816837,49.3232103 L79.4394074,49.3232103 Z M86.7206333,49.4211092 C86.475885,49.4211092 86.2229822,49.3884765 85.9619173,49.3232103 L86.0720535,48.5155449 C86.2596939,48.5726529 86.4106197,48.6012064 86.5248356,48.6012064 C86.7043177,48.6012064 86.8511645,48.5787715 86.9653804,48.533901 C87.0795962,48.4890304 87.2040081,48.3707372 87.3386197,48.1790177 C87.4732312,47.9872982 87.5772477,47.7160395 87.6506722,47.3652336 C87.7240967,47.0144277 87.7873224,46.5167803 87.8403512,45.8722764 C87.89338,45.2277725 87.919894,44.4445897 87.919894,43.5227044 L87.919894,42.9964981 L92.3987657,42.9964981 L92.3987657,49.3232103 L91.4564894,49.3232103 L91.4564894,43.8286382 L88.8132209,43.8286382 L88.8132209,43.9754865 C88.8132209,44.9381632 88.7765092,45.7580577 88.7030847,46.4351947 C88.6296602,47.1123317 88.5378809,47.6426117 88.4277442,48.0260508 C88.3176075,48.4094898 88.1646421,48.7072624 87.9688434,48.9193776 C87.7730448,49.1314928 87.5833677,49.2681419 87.3998064,49.329329 C87.2162452,49.3905161 86.9898564,49.4211092 86.7206333,49.4211092 Z M96.3881432,49.4578212 C95.7436393,49.4578212 95.1888848,49.2824209 94.723863,48.931615 C94.2588412,48.5808091 94.0263338,48.0913198 94.0263338,47.4631325 C94.0263338,46.802312 94.2710785,46.2924274 94.7605751,45.9334632 C95.2500717,45.574499 95.9068032,45.3950196 96.7307891,45.3950196 C97.3834513,45.3950196 98.0279455,45.4847593 98.6642911,45.6642414 L98.6642911,45.4684437 C98.6642911,44.9136809 98.501128,44.4894568 98.174797,44.1957588 C97.8484659,43.9020609 97.3875301,43.7552141 96.7919759,43.7552141 C96.1719469,43.7552141 95.5315317,43.9061399 94.8707113,44.2079962 L94.5892521,43.4370429 C95.3724467,43.0780787 96.1393133,42.8985993 96.8898748,42.8985993 C97.7872852,42.8985993 98.4684911,43.1311067 98.9335129,43.5961285 C99.3740599,44.0366754 99.5943301,44.6566952 99.5943301,45.4562063 L99.5943301,49.3232103 L98.6642911,49.3232103 L98.6642911,48.380934 C98.10137,49.0988624 97.3426616,49.4578212 96.3881432,49.4578212 Z M96.5717035,48.6991053 C97.1590995,48.6991053 97.6567469,48.5400212 98.0646608,48.2218484 C98.4725746,47.9036756 98.6765285,47.4957679 98.6765285,46.998113 L98.6765285,46.41072 C98.0564994,46.2312379 97.4405588,46.1414982 96.828688,46.1414982 C96.2494503,46.1414982 95.7966727,46.2577519 95.4703416,46.4902628 C95.1440106,46.7227737 94.9808475,47.0389022 94.9808475,47.4386578 C94.9808475,47.8220968 95.1338129,48.1280276 95.4397483,48.3564593 C95.7456837,48.5848911 96.1229983,48.6991053 96.5717035,48.6991053 Z M103.118688,49.3232103 L103.118688,43.8286382 L100.854778,43.8286382 L100.854778,42.9964981 L106.337112,42.9964981 L106.337112,43.8286382 L104.073202,43.8286382 L104.073202,49.3232103 L103.118688,49.3232103 Z M110.473338,49.4700586 C109.584086,49.4700586 108.835575,49.1620882 108.227784,48.5461383 C107.619992,47.9301884 107.316101,47.1368079 107.316101,46.1659729 C107.316101,45.2440876 107.605715,44.4629443 108.184953,43.8225195 C108.764191,43.1820948 109.486187,42.8618872 110.350965,42.8618872 C111.256533,42.8618872 111.974451,43.1800552 112.504739,43.8164009 C113.035027,44.4527465 113.300167,45.2522456 113.300167,46.2149223 C113.300167,46.3372965 113.296088,46.4474316 113.28793,46.5453309 L108.270614,46.5453309 C108.335881,47.1898348 108.578586,47.701759 108.998737,48.0811189 C109.418888,48.4604787 109.918575,48.6501558 110.497813,48.6501558 C111.256533,48.6501558 111.921422,48.3523832 112.492502,47.756829 L113.079895,48.2830352 C112.370125,49.0743881 111.501281,49.4700586 110.473338,49.4700586 Z M108.270614,45.7866149 L112.345653,45.7866149 C112.288545,45.1747441 112.086631,44.666899 111.739904,44.2630643 C111.393178,43.8592296 110.922044,43.6573152 110.32649,43.6573152 C109.788044,43.6573152 109.327108,43.85719 108.943669,44.2569456 C108.56023,44.6567012 108.335881,45.1665859 108.270614,45.7866149 Z M114.144544,49.3232103 L116.738864,45.7009534 L114.279155,42.9964981 L115.417229,42.9964981 L118.635653,46.6677044 L118.635653,42.9964981 L119.57793,42.9964981 L119.57793,46.6677044 L122.796354,42.9964981 L123.934428,42.9964981 L121.47472,45.7009534 L124.069039,49.3232103 L122.967677,49.3232103 L120.862852,46.3740079 L119.57793,47.7813037 L119.57793,49.3232103 L118.635653,49.3232103 L118.635653,47.7813037 L117.350731,46.3740079 L115.245906,49.3232103 L114.144544,49.3232103 Z M125.390673,41.6136771 L125.390673,40.5735019 L126.46756,40.5735019 L126.46756,41.6136771 L125.390673,41.6136771 Z M125.45186,49.3232103 L125.45186,42.9964981 L126.394136,42.9964981 L126.394136,49.3232103 L125.45186,49.3232103 Z M133.785498,49.3232103 L133.785498,43.8286382 L131.521588,43.8286382 L131.521588,42.9964981 L137.003922,42.9964981 L137.003922,43.8286382 L134.740012,43.8286382 L134.740012,49.3232103 L133.785498,49.3232103 Z M140.259059,49.4578212 C139.614555,49.4578212 139.0598,49.2824209 138.594778,48.931615 C138.129757,48.5808091 137.897249,48.0913198 137.897249,47.4631325 C137.897249,46.802312 138.141994,46.2924274 138.631491,45.9334632 C139.120987,45.574499 139.777719,45.3950196 140.601705,45.3950196 C141.254367,45.3950196 141.898861,45.4847593 142.535207,45.6642414 L142.535207,45.4684437 C142.535207,44.9136809 142.372044,44.4894568 142.045712,44.1957588 C141.719381,43.9020609 141.258446,43.7552141 140.662891,43.7552141 C140.042862,43.7552141 139.402447,43.9061399 138.741627,44.2079962 L138.460168,43.4370429 C139.243362,43.0780787 140.010229,42.8985993 140.76079,42.8985993 C141.658201,42.8985993 142.339407,43.1311067 142.804428,43.5961285 C143.244975,44.0366754 143.465246,44.6566952 143.465246,45.4562063 L143.465246,49.3232103 L142.535207,49.3232103 L142.535207,48.380934 C141.972285,49.0988624 141.213577,49.4578212 140.259059,49.4578212 Z M140.442619,48.6991053 C141.030015,48.6991053 141.527662,48.5400212 141.935576,48.2218484 C142.34349,47.9036756 142.547444,47.4957679 142.547444,46.998113 L142.547444,46.41072 C141.927415,46.2312379 141.311474,46.1414982 140.699603,46.1414982 C140.120366,46.1414982 139.667588,46.2577519 139.341257,46.4902628 C139.014926,46.7227737 138.851763,47.0389022 138.851763,47.4386578 C138.851763,47.8220968 139.004728,48.1280276 139.310664,48.3564593 C139.616599,48.5848911 139.993914,48.6991053 140.442619,48.6991053 Z M149.131141,49.3232103 L149.131141,42.9964981 L154.613475,42.9964981 L154.613475,49.3232103 L153.671199,49.3232103 L153.671199,43.8286382 L150.073417,43.8286382 L150.073417,49.3232103 L149.131141,49.3232103 Z M159.483942,49.4700586 C158.59469,49.4700586 157.84618,49.1620882 157.238388,48.5461383 C156.630596,47.9301884 156.326705,47.1368079 156.326705,46.1659729 C156.326705,45.2440876 156.616319,44.4629443 157.195557,43.8225195 C157.774795,43.1820948 158.496792,42.8618872 159.361569,42.8618872 C160.267138,42.8618872 160.985055,43.1800552 161.515343,43.8164009 C162.045631,44.4527465 162.310771,45.2522456 162.310771,46.2149223 C162.310771,46.3372965 162.306692,46.4474316 162.298534,46.5453309 L157.281219,46.5453309 C157.346485,47.1898348 157.58919,47.701759 158.009341,48.0811189 C158.429492,48.4604787 158.929179,48.6501558 159.508417,48.6501558 C160.267137,48.6501558 160.932027,48.3523832 161.503106,47.756829 L162.090499,48.2830352 C161.380729,49.0743881 160.511885,49.4700586 159.483942,49.4700586 Z M157.281219,45.7866149 L161.356258,45.7866149 C161.29915,45.1747441 161.097235,44.666899 160.750509,44.2630643 C160.403782,43.8592296 159.932648,43.6573152 159.337094,43.6573152 C158.798648,43.6573152 158.337712,43.85719 157.954273,44.2569456 C157.570834,44.6567012 157.346485,45.1665859 157.281219,45.7866149 Z M163.962814,51.281187 L163.962814,42.9964981 L164.90509,42.9964981 L164.90509,44.269183 C165.541436,43.3309811 166.349093,42.8618872 167.328087,42.8618872 C168.135756,42.8618872 168.841436,43.1616994 169.445149,43.7613328 C170.048861,44.3609661 170.350713,45.1625048 170.350713,46.1659729 C170.350713,47.1531244 170.048861,47.9485445 169.445149,48.552257 C168.841436,49.1559695 168.135756,49.4578212 167.328087,49.4578212 C166.332777,49.4578212 165.525119,49.0091227 164.90509,48.1117122 L164.90509,51.281187 L163.962814,51.281187 Z M167.156764,48.6134438 C167.793109,48.6134438 168.323389,48.3911341 168.74762,47.946508 C169.17185,47.5018819 169.383962,46.904297 169.383962,46.1537355 C169.383962,45.4276489 169.167771,44.8382222 168.735382,44.3854378 C168.302994,43.9326535 167.776793,43.7062647 167.156764,43.7062647 C166.544893,43.7062647 166.010534,43.9387721 165.55367,44.4037939 C165.096807,44.8688157 164.868378,45.4562028 164.868378,46.1659729 C164.868378,46.875743 165.096807,47.4610906 165.55367,47.9220333 C166.010534,48.3829759 166.544893,48.6134438 167.156764,48.6134438 Z M174.85406,49.4700586 C173.964807,49.4700586 173.216297,49.1620882 172.608505,48.5461383 C172.000713,47.9301884 171.696822,47.1368079 171.696822,46.1659729 C171.696822,45.2440876 171.986437,44.4629443 172.565674,43.8225195 C173.144912,43.1820948 173.866909,42.8618872 174.731686,42.8618872 C175.637255,42.8618872 176.355172,43.1800552 176.88546,43.8164009 C177.415748,44.4527465 177.680888,45.2522456 177.680888,46.2149223 C177.680888,46.3372965 177.676809,46.4474316 177.668651,46.5453309 L172.651336,46.5453309 C172.716602,47.1898348 172.959307,47.701759 173.379458,48.0811189 C173.79961,48.4604787 174.299297,48.6501558 174.878534,48.6501558 C175.637254,48.6501558 176.302144,48.3523832 176.873223,47.756829 L177.460616,48.2830352 C176.750846,49.0743881 175.882002,49.4700586 174.85406,49.4700586 Z M172.651336,45.7866149 L176.726375,45.7866149 C176.669267,45.1747441 176.467352,44.666899 176.120626,44.2630643 C175.773899,43.8592296 175.302765,43.6573152 174.707211,43.6573152 C174.168765,43.6573152 173.707829,43.85719 173.32439,44.2569456 C172.940951,44.6567012 172.716602,45.1665859 172.651336,45.7866149 Z M179.332931,49.3232103 L179.332931,42.9964981 L180.275208,42.9964981 L180.275208,46.6432297 L183.738379,42.9964981 L184.900927,42.9964981 L182.257659,45.7376655 L184.974352,49.3232103 L183.860752,49.3232103 L181.609079,46.4229573 L180.275208,47.793541 L180.275208,49.3232103 L179.332931,49.3232103 Z M188.156064,49.4578212 C187.51156,49.4578212 186.956805,49.2824209 186.491784,48.931615 C186.026762,48.5808091 185.794254,48.0913198 185.794254,47.4631325 C185.794254,46.802312 186.038999,46.2924274 186.528496,45.9334632 C187.017992,45.574499 187.674724,45.3950196 188.49871,45.3950196 C189.151372,45.3950196 189.795866,45.4847593 190.432212,45.6642414 L190.432212,45.4684437 C190.432212,44.9136809 190.269049,44.4894568 189.942717,44.1957588 C189.616386,43.9020609 189.155451,43.7552141 188.559896,43.7552141 C187.939867,43.7552141 187.299452,43.9061399 186.638632,44.2079962 L186.357173,43.4370429 C187.140367,43.0780787 187.907234,42.8985993 188.657795,42.8985993 C189.555206,42.8985993 190.236412,43.1311067 190.701433,43.5961285 C191.14198,44.0366754 191.362251,44.6566952 191.362251,45.4562063 L191.362251,49.3232103 L190.432212,49.3232103 L190.432212,48.380934 C189.869291,49.0988624 189.110582,49.4578212 188.156064,49.4578212 Z M188.339624,48.6991053 C188.92702,48.6991053 189.424667,48.5400212 189.832581,48.2218484 C190.240495,47.9036756 190.444449,47.4957679 190.444449,46.998113 L190.444449,46.41072 C189.82442,46.2312379 189.208479,46.1414982 188.596608,46.1414982 C188.017371,46.1414982 187.564593,46.2577519 187.238262,46.4902628 C186.911931,46.7227737 186.748768,47.0389022 186.748768,47.4386578 C186.748768,47.8220968 186.901733,48.1280276 187.207669,48.3564593 C187.513604,48.5848911 187.890919,48.6991053 188.339624,48.6991053 Z M195.363865,49.4700586 C194.393031,49.4700586 193.520108,49.1559696 192.745072,48.5277823 L193.222328,47.8302531 C193.866832,48.3768577 194.572513,48.6501558 195.339391,48.6501558 C195.771779,48.6501558 196.140936,48.5502184 196.446871,48.3503407 C196.752807,48.1504629 196.905772,47.8751251 196.905772,47.5243192 C196.905772,47.1979882 196.767083,46.9430458 196.489702,46.7594846 C196.212321,46.5759234 195.820729,46.4841441 195.314916,46.4841441 L194.470539,46.4841441 L194.470539,45.7131908 L195.327153,45.7131908 C195.743226,45.7131908 196.081789,45.6132534 196.342854,45.4133756 C196.603919,45.2134978 196.734449,44.9503973 196.734449,44.6240662 C196.734449,44.3385265 196.605958,44.1100982 196.348973,43.9387744 C196.091987,43.7674506 195.763621,43.68179 195.363865,43.68179 C194.613304,43.68179 193.972889,43.893902 193.442601,44.3181324 L192.977581,43.6573152 C193.662877,43.1270272 194.478692,42.8618872 195.425052,42.8618872 C196.126664,42.8618872 196.683458,43.0189317 197.095451,43.3330254 C197.507444,43.647119 197.713438,44.0529872 197.713438,44.5506421 C197.713438,45.2440957 197.374874,45.7295059 196.697737,46.0068873 C197.480932,46.2842687 197.872523,46.8023115 197.872523,47.5610313 C197.872523,48.0913193 197.644095,48.5420574 197.187231,48.913259 C196.730368,49.2844606 196.122585,49.4700586 195.363865,49.4700586 Z M199.622465,49.3232103 L199.622465,42.9964981 L200.564741,42.9964981 L200.564741,48.0015761 L204.321609,42.9964981 L205.23941,42.9964981 L205.23941,49.3232103 L204.297134,49.3232103 L204.297134,44.3181324 L200.528029,49.3232103 L199.622465,49.3232103 Z" id="платежi-та-перекази" fill="#8B8D8F"></path>
            </g>
        </g>
    </g>
</svg>